<?xml version="1.0" encoding="utf-8"?>
<!-- Generator: Adobe Illustrator 16.0.0, SVG Export Plug-In . SVG Version: 6.00 Build 0)  -->
<!DOCTYPE svg PUBLIC "-//W3C//DTD SVG 1.1//EN" "http://www.w3.org/Graphics/SVG/1.1/DTD/svg11.dtd">
<svg version="1.1" id="Layer_1" xmlns="http://www.w3.org/2000/svg" xmlns:xlink="http://www.w3.org/1999/xlink" x="0px" y="0px"
	 width="74.075px" height="74.074px" viewBox="14.259 -2.593 74.075 74.074" enable-background="new 14.259 -2.593 74.075 74.074"
	 xml:space="preserve">
<rect x="14.259" y="-2.593" fill="none" width="74.075" height="74.074"/>
<path d="M82.031,1.111H20.561c-1.434,0-2.597,1.162-2.597,2.597v61.473c0,1.436,1.163,2.597,2.597,2.597h61.471
	c1.434,0,2.598-1.161,2.598-2.597V3.708C84.629,2.272,83.465,1.111,82.031,1.111z M79.434,62.583H23.159V6.306h56.277v56.277H79.434
	z M51.297,54.244c10.916,0,19.799-8.883,19.799-19.8s-8.883-19.799-19.799-19.799c-10.917,0-19.8,8.883-19.8,19.799
	C31.497,45.361,40.379,54.244,51.297,54.244z M48.699,17.461v3.043c0,1.436,1.163,2.597,2.596,2.597
	c1.435,0,2.598-1.162,2.598-2.597v-3.043c8.254,1.258,14.605,8.385,14.605,16.983c0,8.603-6.352,15.725-14.604,16.983v-3.042
	c0-1.436-1.163-2.598-2.597-2.598c-1.436,0-2.598,1.161-2.598,2.598v3.042c-8.254-1.258-14.605-8.38-14.605-16.983
	C34.094,25.846,40.445,18.719,48.699,17.461z M41.069,34.444c0-1.436,1.163-2.597,2.597-2.597s2.597,1.162,2.597,2.597
	s-1.163,2.597-2.597,2.597S41.069,35.88,41.069,34.444z M56.328,34.444c0-1.436,1.162-2.597,2.598-2.597s2.598,1.162,2.598,2.597
	s-1.162,2.597-2.598,2.597S56.328,35.88,56.328,34.444z"/>
</svg>
