<?xml version="1.0" encoding="utf-8"?>
<!-- Generator: Adobe Illustrator 16.0.0, SVG Export Plug-In . SVG Version: 6.00 Build 0)  -->
<!DOCTYPE svg PUBLIC "-//W3C//DTD SVG 1.1//EN" "http://www.w3.org/Graphics/SVG/1.1/DTD/svg11.dtd">
<svg version="1.1" id="Layer_1" xmlns="http://www.w3.org/2000/svg" xmlns:xlink="http://www.w3.org/1999/xlink" x="0px" y="0px"
	 width="395.477px" height="331.691px" viewBox="0 0 395.477 331.691" enable-background="new 0 0 395.477 331.691"
	 xml:space="preserve">
<path d="M29.396,133.287h336.686c8.086,0,15.436,3.306,20.763,8.633s8.633,12.677,8.633,20.763v169.008h-4.252V162.682
	c0-6.912-2.83-13.198-7.388-17.756c-4.559-4.558-10.844-7.388-17.756-7.388H29.396c-6.912,0-13.197,2.829-17.756,7.388
	c-4.558,4.558-7.387,10.844-7.387,17.756v169.009H0V162.682c0-8.086,3.306-15.436,8.633-20.763
	C13.96,136.593,21.309,133.287,29.396,133.287"/>
<path d="M357.599,145.523H37.878c-2.039,0-3.895,0.835-5.239,2.18c-1.345,1.345-2.18,3.2-2.18,5.239v97.535
	c0,2.039,0.835,3.894,2.18,5.239c1.345,1.345,3.199,2.18,5.239,2.18h319.721c2.039,0,3.895-0.835,5.239-2.18
	c1.345-1.346,2.18-3.2,2.18-5.239v-97.535c0-2.039-0.835-3.894-2.18-5.239C361.493,146.358,359.638,145.523,357.599,145.523
	 M37.878,143.397h319.721c2.626,0,5.013,1.074,6.742,2.803s2.803,4.116,2.803,6.742v97.535c0,2.626-1.073,5.013-2.803,6.741
	c-1.729,1.73-4.116,2.804-6.742,2.804H37.878c-2.626,0-5.012-1.073-6.742-2.804c-1.729-1.729-2.803-4.115-2.803-6.741v-97.535
	c0-2.626,1.073-5.013,2.803-6.742C32.865,144.47,35.252,143.397,37.878,143.397z"/>
<g enable-background="new    ">
	<path d="M102.352,196.496l2.51-0.395c0.141,1.006,0.534,1.775,1.178,2.313c0.644,0.535,1.544,0.803,2.701,0.803
		c1.166,0,2.031-0.236,2.595-0.711c0.564-0.475,0.846-1.033,0.846-1.672c0-0.574-0.25-1.025-0.748-1.354
		c-0.348-0.227-1.213-0.514-2.595-0.861c-1.861-0.469-3.152-0.877-3.871-1.219c-0.719-0.344-1.265-0.818-1.636-1.426
		c-0.372-0.605-0.557-1.275-0.557-2.01c0-0.666,0.153-1.285,0.458-1.854c0.305-0.568,0.722-1.041,1.248-1.418
		c0.395-0.291,0.933-0.537,1.615-0.74c0.682-0.201,1.413-0.303,2.193-0.303c1.175,0,2.207,0.168,3.096,0.508
		c0.889,0.338,1.544,0.797,1.967,1.375c0.423,0.578,0.714,1.352,0.875,2.32l-2.482,0.338c-0.113-0.771-0.439-1.373-0.98-1.805
		c-0.541-0.434-1.305-0.65-2.292-0.65c-1.166,0-1.998,0.193-2.496,0.58c-0.499,0.385-0.748,0.836-0.748,1.354
		c0,0.328,0.104,0.625,0.31,0.889c0.207,0.271,0.531,0.498,0.973,0.676c0.254,0.094,1.001,0.311,2.243,0.648
		c1.796,0.48,3.048,0.873,3.759,1.178c0.709,0.307,1.267,0.75,1.671,1.334c0.404,0.582,0.606,1.307,0.606,2.172
		c0,0.846-0.247,1.643-0.74,2.391c-0.494,0.746-1.206,1.326-2.137,1.734s-1.984,0.613-3.159,0.613c-1.946,0-3.43-0.404-4.45-1.213
		S102.634,198.083,102.352,196.496z"/>
	<path d="M123.352,198.695l0.367,2.242c-0.715,0.15-1.354,0.227-1.918,0.227c-0.922,0-1.636-0.146-2.144-0.438
		s-0.865-0.674-1.072-1.15c-0.207-0.475-0.31-1.473-0.31-2.996v-8.617h-1.862v-1.975h1.862v-3.709l2.524-1.523v5.232h2.553v1.975
		h-2.553v8.758c0,0.725,0.044,1.189,0.134,1.396s0.235,0.371,0.438,0.494c0.202,0.121,0.491,0.184,0.867,0.184
		C122.52,198.794,122.891,198.761,123.352,198.695z"/>
	<path d="M135.65,200.966v-2.201c-1.166,1.693-2.75,2.539-4.753,2.539c-0.884,0-1.709-0.17-2.475-0.508
		c-0.767-0.338-1.335-0.764-1.707-1.275c-0.372-0.514-0.633-1.141-0.783-1.883c-0.104-0.5-0.155-1.289-0.155-2.371v-9.279h2.539
		v8.307c0,1.326,0.052,2.219,0.155,2.68c0.16,0.668,0.498,1.191,1.015,1.572s1.157,0.572,1.918,0.572
		c0.761,0,1.476-0.195,2.144-0.586c0.667-0.391,1.14-0.922,1.417-1.594c0.277-0.672,0.416-1.646,0.416-2.926v-8.025h2.539v14.979
		H135.65z"/>
	<path d="M146.058,200.966l-5.698-14.979h2.68l3.215,8.971c0.348,0.967,0.668,1.975,0.959,3.018c0.226-0.789,0.541-1.74,0.945-2.85
		l3.328-9.139h2.609l-5.669,14.979H146.058z"/>
	<path d="M159.104,200.966l-4.584-14.979h2.624l2.383,8.646l0.889,3.215c0.038-0.16,0.296-1.189,0.775-3.088l2.384-8.773h2.609
		l2.243,8.688l0.748,2.863l0.86-2.891l2.567-8.66h2.468l-4.682,14.979h-2.638l-2.383-8.971l-0.578-2.553l-3.032,11.523H159.104z"/>
	<path d="M175.507,200.966l5.472-7.785l-5.063-7.193h3.173l2.299,3.512c0.432,0.668,0.78,1.227,1.043,1.678
		c0.414-0.619,0.794-1.17,1.143-1.648l2.524-3.541h3.032l-5.176,7.053l5.571,7.926h-3.117l-3.075-4.654l-0.818-1.256l-3.935,5.91
		H175.507z"/>
	<path d="M191.528,206.734l-0.282-2.383c0.555,0.15,1.039,0.225,1.453,0.225c0.564,0,1.015-0.094,1.354-0.281
		c0.338-0.188,0.615-0.451,0.832-0.789c0.16-0.254,0.418-0.885,0.775-1.891c0.047-0.141,0.122-0.348,0.226-0.621l-5.684-15.006
		h2.736l3.117,8.674c0.404,1.1,0.766,2.256,1.086,3.469c0.292-1.166,0.639-2.303,1.044-3.412l3.202-8.73h2.538l-5.698,15.232
		c-0.611,1.645-1.086,2.777-1.424,3.398c-0.451,0.836-0.969,1.451-1.551,1.84c-0.583,0.391-1.279,0.586-2.087,0.586
		C192.675,207.044,192.13,206.941,191.528,206.734z"/>
	<path d="M204.742,200.966v-2.061l9.535-10.943c-1.082,0.057-2.036,0.084-2.863,0.084h-6.107v-2.059h12.242v1.678l-8.109,9.506
		l-1.565,1.734c1.138-0.084,2.204-0.127,3.201-0.127H218v2.188H204.742z"/>
</g>
<g enable-background="new    ">
	<path d="M102.354,219.65l1.552-0.244c0.087,0.623,0.33,1.1,0.728,1.43c0.398,0.332,0.954,0.496,1.669,0.496
		c0.72,0,1.255-0.146,1.604-0.439s0.523-0.637,0.523-1.033c0-0.354-0.154-0.633-0.462-0.836c-0.215-0.139-0.75-0.316-1.604-0.531
		c-1.15-0.291-1.948-0.543-2.393-0.754c-0.444-0.213-0.781-0.506-1.011-0.881s-0.344-0.789-0.344-1.242
		c0-0.412,0.094-0.795,0.283-1.146s0.446-0.643,0.771-0.875c0.244-0.18,0.577-0.332,0.998-0.457
		c0.421-0.125,0.873-0.188,1.355-0.188c0.726,0,1.364,0.104,1.913,0.313c0.549,0.209,0.954,0.494,1.216,0.85
		c0.261,0.357,0.441,0.836,0.54,1.434l-1.534,0.211c-0.07-0.477-0.271-0.85-0.606-1.117c-0.334-0.266-0.806-0.4-1.416-0.4
		c-0.721,0-1.235,0.119-1.542,0.357c-0.308,0.238-0.462,0.518-0.462,0.836c0,0.205,0.063,0.387,0.191,0.551
		c0.128,0.168,0.328,0.307,0.602,0.418c0.157,0.059,0.619,0.191,1.386,0.4c1.11,0.297,1.884,0.539,2.323,0.729
		c0.438,0.188,0.783,0.463,1.033,0.822c0.25,0.361,0.375,0.809,0.375,1.344c0,0.521-0.152,1.014-0.458,1.477
		c-0.305,0.461-0.745,0.818-1.32,1.072c-0.575,0.252-1.226,0.379-1.952,0.379c-1.203,0-2.119-0.25-2.75-0.75
		C102.93,221.373,102.528,220.632,102.354,219.65z"/>
	<path d="M111.278,219.65l1.552-0.244c0.087,0.623,0.33,1.1,0.728,1.43c0.398,0.332,0.954,0.496,1.669,0.496
		c0.72,0,1.255-0.146,1.604-0.439s0.523-0.637,0.523-1.033c0-0.354-0.154-0.633-0.462-0.836c-0.215-0.139-0.75-0.316-1.604-0.531
		c-1.15-0.291-1.948-0.543-2.393-0.754c-0.444-0.213-0.781-0.506-1.011-0.881s-0.344-0.789-0.344-1.242
		c0-0.412,0.094-0.795,0.283-1.146s0.446-0.643,0.771-0.875c0.244-0.18,0.577-0.332,0.998-0.457
		c0.421-0.125,0.873-0.188,1.355-0.188c0.726,0,1.364,0.104,1.913,0.313c0.549,0.209,0.954,0.494,1.216,0.85
		c0.261,0.357,0.441,0.836,0.54,1.434l-1.534,0.211c-0.07-0.477-0.271-0.85-0.606-1.117c-0.334-0.266-0.806-0.4-1.416-0.4
		c-0.721,0-1.235,0.119-1.542,0.357c-0.308,0.238-0.462,0.518-0.462,0.836c0,0.205,0.063,0.387,0.191,0.551
		c0.128,0.168,0.328,0.307,0.602,0.418c0.157,0.059,0.619,0.191,1.386,0.4c1.11,0.297,1.884,0.539,2.323,0.729
		c0.438,0.188,0.783,0.463,1.033,0.822c0.25,0.361,0.375,0.809,0.375,1.344c0,0.521-0.152,1.014-0.458,1.477
		c-0.305,0.461-0.745,0.818-1.32,1.072c-0.575,0.252-1.226,0.379-1.952,0.379c-1.203,0-2.119-0.25-2.75-0.75
		C111.855,221.373,111.452,220.632,111.278,219.65z"/>
	<path d="M120.839,211.441v-1.805h1.569v1.805H120.839z M120.839,222.414v-9.256h1.569v9.256H120.839z"/>
	<path d="M130.801,222.414v-1.168c-0.587,0.918-1.45,1.377-2.589,1.377c-0.738,0-1.416-0.203-2.035-0.611
		c-0.619-0.406-1.098-0.975-1.438-1.703c-0.34-0.729-0.51-1.566-0.51-2.514c0-0.924,0.154-1.762,0.462-2.516
		c0.308-0.752,0.77-1.328,1.386-1.729c0.616-0.402,1.305-0.602,2.066-0.602c0.558,0,1.054,0.117,1.49,0.352
		c0.436,0.236,0.79,0.543,1.063,0.92v-4.584h1.56v12.777H130.801z M125.842,217.794c0,1.186,0.25,2.07,0.75,2.658
		c0.5,0.586,1.089,0.879,1.769,0.879c0.686,0,1.268-0.279,1.748-0.84c0.479-0.561,0.719-1.416,0.719-2.566
		c0-1.268-0.244-2.197-0.732-2.789c-0.488-0.594-1.089-0.889-1.804-0.889c-0.697,0-1.28,0.283-1.748,0.854
		S125.842,216.568,125.842,217.794z"/>
	<path d="M135.158,214.945v-1.787h1.787v1.787H135.158z M135.158,222.414v-1.787h1.787v1.787H135.158z"/>
	<path d="M144.013,219.65l1.552-0.244c0.087,0.623,0.33,1.1,0.728,1.43c0.398,0.332,0.954,0.496,1.669,0.496
		c0.72,0,1.255-0.146,1.604-0.439s0.523-0.637,0.523-1.033c0-0.354-0.154-0.633-0.462-0.836c-0.215-0.139-0.75-0.316-1.604-0.531
		c-1.15-0.291-1.948-0.543-2.393-0.754c-0.444-0.213-0.781-0.506-1.011-0.881s-0.344-0.789-0.344-1.242
		c0-0.412,0.094-0.795,0.283-1.146s0.446-0.643,0.771-0.875c0.244-0.18,0.577-0.332,0.998-0.457
		c0.421-0.125,0.873-0.188,1.355-0.188c0.726,0,1.364,0.104,1.913,0.313c0.549,0.209,0.954,0.494,1.216,0.85
		c0.261,0.357,0.441,0.836,0.54,1.434l-1.534,0.211c-0.07-0.477-0.271-0.85-0.606-1.117c-0.334-0.266-0.806-0.4-1.416-0.4
		c-0.721,0-1.235,0.119-1.542,0.357c-0.308,0.238-0.462,0.518-0.462,0.836c0,0.205,0.063,0.387,0.191,0.551
		c0.128,0.168,0.328,0.307,0.602,0.418c0.157,0.059,0.619,0.191,1.386,0.4c1.11,0.297,1.884,0.539,2.323,0.729
		c0.438,0.188,0.783,0.463,1.033,0.822c0.25,0.361,0.375,0.809,0.375,1.344c0,0.521-0.152,1.014-0.458,1.477
		c-0.305,0.461-0.745,0.818-1.32,1.072c-0.575,0.252-1.226,0.379-1.952,0.379c-1.203,0-2.119-0.25-2.75-0.75
		C144.59,221.373,144.187,220.632,144.013,219.65z"/>
	<path d="M153.566,222.414v-9.256h1.403v1.299c0.291-0.453,0.677-0.818,1.159-1.094c0.482-0.277,1.031-0.414,1.647-0.414
		c0.686,0,1.248,0.143,1.686,0.426c0.439,0.285,0.748,0.684,0.928,1.195c0.732-1.082,1.685-1.621,2.859-1.621
		c0.918,0,1.624,0.254,2.118,0.762c0.494,0.51,0.741,1.291,0.741,2.35v6.354h-1.56v-5.83c0-0.629-0.051-1.08-0.152-1.355
		c-0.102-0.277-0.286-0.498-0.553-0.668c-0.268-0.168-0.581-0.252-0.941-0.252c-0.651,0-1.191,0.217-1.621,0.648
		c-0.43,0.434-0.645,1.127-0.645,2.08v5.377h-1.569V216.4c0-0.697-0.128-1.221-0.383-1.568c-0.256-0.35-0.674-0.523-1.255-0.523
		c-0.442,0-0.85,0.115-1.225,0.348c-0.375,0.232-0.646,0.572-0.815,1.02c-0.168,0.449-0.253,1.094-0.253,1.936v4.803H153.566z"/>
	<path d="M168.442,211.441v-1.805h1.569v1.805H168.442z M168.442,222.414v-9.256h1.569v9.256H168.442z"/>
	<path d="M172.364,222.414v-12.777h1.569v12.777H172.364z"/>
	<path d="M182.7,219.433l1.621,0.199c-0.256,0.947-0.729,1.684-1.421,2.205c-0.691,0.523-1.574,0.785-2.649,0.785
		c-1.354,0-2.427-0.418-3.22-1.25c-0.793-0.834-1.189-2.004-1.189-3.51c0-1.557,0.401-2.766,1.203-3.625s1.842-1.289,3.12-1.289
		c1.237,0,2.249,0.42,3.033,1.264c0.785,0.842,1.177,2.027,1.177,3.555c0,0.094-0.003,0.232-0.009,0.42h-6.902
		c0.058,1.016,0.345,1.795,0.863,2.334c0.517,0.541,1.162,0.811,1.935,0.811c0.575,0,1.066-0.15,1.473-0.453
		C182.139,220.578,182.462,220.095,182.7,219.433z M177.55,216.896h5.168c-0.07-0.777-0.268-1.361-0.593-1.752
		c-0.5-0.604-1.147-0.906-1.944-0.906c-0.72,0-1.326,0.242-1.817,0.725C177.873,215.443,177.602,216.089,177.55,216.896z"/>
	<path d="M184.844,225.96v-1.133h10.397v1.133H184.844z"/>
	<path d="M202.258,221.271c-0.582,0.494-1.141,0.844-1.678,1.047c-0.538,0.203-1.115,0.305-1.73,0.305
		c-1.017,0-1.798-0.248-2.344-0.746c-0.546-0.496-0.819-1.131-0.819-1.904c0-0.453,0.103-0.867,0.309-1.242
		c0.207-0.373,0.477-0.674,0.811-0.9c0.334-0.227,0.71-0.398,1.129-0.516c0.308-0.08,0.772-0.158,1.395-0.234
		c1.267-0.15,2.199-0.332,2.798-0.541c0.006-0.215,0.008-0.352,0.008-0.41c0-0.639-0.147-1.088-0.443-1.35
		c-0.401-0.355-0.997-0.531-1.787-0.531c-0.738,0-1.283,0.129-1.635,0.387c-0.351,0.26-0.611,0.717-0.779,1.373l-1.534-0.209
		c0.14-0.656,0.369-1.188,0.688-1.59c0.319-0.404,0.781-0.715,1.386-0.934c0.604-0.217,1.304-0.326,2.101-0.326
		c0.79,0,1.432,0.092,1.926,0.279c0.494,0.186,0.857,0.418,1.09,0.701c0.232,0.281,0.395,0.637,0.488,1.066
		c0.052,0.268,0.078,0.75,0.078,1.447v2.092c0,1.459,0.033,2.381,0.1,2.768c0.067,0.387,0.199,0.756,0.396,1.111h-1.638
		C202.408,222.087,202.304,221.707,202.258,221.271z M202.127,217.767c-0.57,0.232-1.424,0.432-2.563,0.594
		c-0.645,0.092-1.102,0.197-1.369,0.313c-0.267,0.117-0.474,0.287-0.619,0.51c-0.146,0.225-0.218,0.473-0.218,0.746
		c0,0.418,0.158,0.768,0.475,1.045c0.316,0.279,0.78,0.42,1.39,0.42c0.604,0,1.142-0.133,1.612-0.396
		c0.47-0.266,0.815-0.627,1.037-1.086c0.169-0.354,0.253-0.877,0.253-1.568V217.767z"/>
	<path d="M207.592,222.414h-1.456v-12.777h1.569v4.559c0.662-0.832,1.507-1.246,2.535-1.246c0.57,0,1.108,0.115,1.617,0.344
		c0.508,0.23,0.926,0.553,1.255,0.967c0.328,0.416,0.585,0.918,0.771,1.504c0.186,0.588,0.278,1.215,0.278,1.883
		c0,1.586-0.393,2.813-1.176,3.678c-0.785,0.865-1.727,1.299-2.824,1.299c-1.092,0-1.949-0.457-2.57-1.369V222.414z
		 M207.574,217.716c0,1.109,0.15,1.91,0.453,2.404c0.493,0.809,1.162,1.211,2.004,1.211c0.686,0,1.278-0.297,1.777-0.893
		c0.5-0.596,0.75-1.482,0.75-2.662c0-1.209-0.239-2.102-0.719-2.676c-0.479-0.576-1.059-0.863-1.738-0.863
		c-0.686,0-1.279,0.299-1.778,0.895C207.823,215.728,207.574,216.589,207.574,217.716z"/>
	<path d="M222.112,219.023l1.542,0.201c-0.169,1.063-0.601,1.895-1.294,2.496c-0.694,0.602-1.547,0.902-2.559,0.902
		c-1.266,0-2.285-0.414-3.055-1.242s-1.154-2.016-1.154-3.561c0-0.998,0.166-1.873,0.496-2.623c0.332-0.75,0.836-1.313,1.513-1.686
		c0.677-0.375,1.413-0.563,2.21-0.563c1.004,0,1.826,0.254,2.466,0.762c0.64,0.51,1.049,1.23,1.229,2.166l-1.525,0.236
		c-0.146-0.623-0.402-1.09-0.771-1.404s-0.814-0.471-1.338-0.471c-0.791,0-1.433,0.283-1.926,0.85
		c-0.494,0.566-0.741,1.463-0.741,2.689c0,1.242,0.238,2.146,0.715,2.711c0.476,0.563,1.099,0.844,1.864,0.844
		c0.616,0,1.131-0.188,1.543-0.566C221.739,220.388,222,219.808,222.112,219.023z"/>
	<path d="M231.001,222.414v-1.168c-0.587,0.918-1.45,1.377-2.589,1.377c-0.738,0-1.416-0.203-2.035-0.611
		c-0.619-0.406-1.098-0.975-1.438-1.703s-0.51-1.566-0.51-2.514c0-0.924,0.154-1.762,0.461-2.516
		c0.309-0.752,0.771-1.328,1.387-1.729c0.615-0.402,1.305-0.602,2.065-0.602c0.558,0,1.054,0.117,1.49,0.352
		c0.436,0.236,0.79,0.543,1.063,0.92v-4.584h1.56v12.777H231.001z M226.041,217.794c0,1.186,0.25,2.07,0.75,2.658
		c0.5,0.586,1.09,0.879,1.77,0.879c0.686,0,1.268-0.279,1.748-0.84c0.479-0.561,0.719-1.416,0.719-2.566
		c0-1.268-0.244-2.197-0.732-2.789c-0.488-0.594-1.09-0.889-1.805-0.889c-0.697,0-1.279,0.283-1.747,0.854
		S226.041,216.568,226.041,217.794z"/>
	<path d="M241.259,219.433l1.621,0.199c-0.256,0.947-0.729,1.684-1.421,2.205c-0.691,0.523-1.574,0.785-2.649,0.785
		c-1.354,0-2.427-0.418-3.22-1.25c-0.793-0.834-1.189-2.004-1.189-3.51c0-1.557,0.4-2.766,1.202-3.625s1.842-1.289,3.12-1.289
		c1.237,0,2.248,0.42,3.033,1.264c0.784,0.842,1.176,2.027,1.176,3.555c0,0.094-0.002,0.232-0.008,0.42h-6.902
		c0.057,1.016,0.345,1.795,0.862,2.334c0.517,0.541,1.161,0.811,1.935,0.811c0.575,0,1.066-0.15,1.473-0.453
		C240.698,220.578,241.021,220.095,241.259,219.433z M236.108,216.896h5.169c-0.069-0.777-0.268-1.361-0.593-1.752
		c-0.5-0.604-1.147-0.906-1.943-0.906c-0.721,0-1.326,0.242-1.817,0.725C236.432,215.443,236.16,216.089,236.108,216.896z"/>
	<path d="M245.225,222.414v-8.035h-1.387v-1.221h1.387v-0.984c0-0.623,0.055-1.084,0.165-1.387c0.151-0.406,0.417-0.736,0.798-0.988
		c0.381-0.254,0.914-0.379,1.6-0.379c0.441,0,0.929,0.051,1.463,0.156l-0.234,1.367c-0.326-0.057-0.634-0.086-0.924-0.086
		c-0.477,0-0.814,0.102-1.012,0.305s-0.296,0.584-0.296,1.143v0.854h1.804v1.221h-1.804v8.035H245.225z"/>
</g>
<path d="M90.1,228.068v-2.389h-2.389v-2.389h-2.39v2.389h-2.389v-2.389h-7.167v2.389h-2.389v-4.778h-2.39v4.778h-7.167v-2.389
	h-4.777v-2.39h-4.778v-2.39h7.167v-4.777h-4.778v-4.777h2.39v-2.39h-2.39v-2.39h-2.389v-2.389h-2.389V199.4h2.389v-2.389h2.389
	v-7.168h-2.389v2.39h-2.389v-2.39h-2.39v4.779h-2.389v-4.779H44.71v-4.777h2.389v-2.389H44.71v-2.389h-2.39v47.777H90.1V228.068z
	 M49.488,197.012v-2.39h2.39v2.39H49.488z M49.488,197.012v2.389h-2.389v-2.389H49.488z M47.099,204.179v-2.389h2.389v2.389h2.39
	v2.389h-2.39v2.389h2.39v4.778h-2.39v4.778h2.39v2.389h-2.39v4.778H44.71v-2.39h2.389v-2.389H44.71v-9.556h2.389v-4.778H44.71
	v-2.389H47.099L47.099,204.179z M54.266,218.513h-2.389v-2.389h2.389V218.513z M54.266,223.291h2.389v2.389h-2.389V223.291z"/>
<path d="M68.599,182.679v2.389h9.556v2.389h2.39v2.39h-2.39v2.389h-7.167v-2.389h-2.389v4.778h2.389v2.389h-2.389v2.389h2.389v2.389
	h2.39v2.39h2.389v-2.39h4.778v-2.389h-7.167v-2.389h4.777v-2.389h7.167v2.389h2.39v-2.389H90.1v-2.39h-2.389v-2.389H90.1v-2.39
	h-4.778v-2.389H90.1v-2.389h-2.389v-2.389h-2.39v2.389h-2.389v-2.389h-2.389v2.389h-2.39v-2.389h-2.389v2.389h-2.389v-2.389h-2.39
	v2.389H68.599L68.599,182.679z M80.544,189.846h2.389v2.389h-2.389V189.846z"/>
<polygon points="75.766,208.957 75.766,211.346 73.377,211.346 73.377,213.735 68.599,213.735 68.599,208.957 63.821,208.957 
	63.821,211.346 61.433,211.346 61.433,213.735 63.821,213.735 63.821,218.513 61.433,218.513 61.433,220.901 63.821,220.901 
	63.821,223.291 66.211,223.291 66.211,216.125 68.599,216.125 68.599,218.513 70.988,218.513 70.988,216.125 75.766,216.125 
	75.766,220.901 78.155,220.901 78.155,216.125 80.544,216.125 80.544,211.346 87.711,211.346 87.711,208.957 80.544,208.957 
	80.544,206.568 78.155,206.568 78.155,208.957 "/>
<polygon points="61.433,204.179 61.433,206.568 68.599,206.568 68.599,204.179 70.988,204.179 70.988,201.791 68.599,201.791 
	68.599,199.401 66.211,199.401 66.211,197.012 63.821,197.012 63.821,194.623 66.211,194.623 66.211,192.235 63.821,192.235 
	63.821,187.457 61.433,187.457 61.433,199.401 63.821,199.401 63.821,201.791 66.211,201.791 66.211,204.179 "/>
<polygon points="61.433,187.457 61.433,185.068 66.211,185.068 66.211,182.679 63.821,182.679 63.821,180.291 61.433,180.291 
	61.433,182.679 59.044,182.679 59.044,180.291 56.655,180.291 56.655,185.068 59.044,185.068 59.044,187.457 "/>
<rect x="51.877" y="180.291" width="2.389" height="4.777"/>
<rect x="66.211" y="185.068" width="2.389" height="4.778"/>
<rect x="80.544" y="216.125" width="4.777" height="2.389"/>
<rect x="80.544" y="197.012" width="4.777" height="2.389"/>
<rect x="75.766" y="187.457" width="2.389" height="2.39"/>
<rect x="75.766" y="204.179" width="2.389" height="2.389"/>
<rect x="70.988" y="208.957" width="2.39" height="2.39"/>
<rect x="54.266" y="185.068" width="2.389" height="2.389"/>
<rect x="70.988" y="204.179" width="2.39" height="2.389"/>
<rect x="68.599" y="206.568" width="2.389" height="2.389"/>
<rect x="73.377" y="206.568" width="2.389" height="2.389"/>
<rect x="87.711" y="206.568" width="2.389" height="2.389"/>
<rect x="66.211" y="180.291" width="2.389" height="2.389"/>
<rect x="47.099" y="204.179" width="2.389" height="2.389"/>
<rect x="87.711" y="211.346" width="2.389" height="2.389"/>
<rect x="87.711" y="201.791" width="2.389" height="2.389"/>
<rect x="87.711" y="216.125" width="2.389" height="2.389"/>
<rect x="59.044" y="201.791" width="2.389" height="2.389"/>
<rect x="47.099" y="218.513" width="2.389" height="2.389"/>
<rect x="82.933" y="220.901" width="2.389" height="2.39"/>
<rect x="87.711" y="220.901" width="2.389" height="2.39"/>
<rect x="87.711" y="197.012" width="2.389" height="2.389"/>
<rect x="47.099" y="180.291" width="2.389" height="2.389"/>
<rect x="56.655" y="197.012" width="2.39" height="2.389"/>
<rect x="49.488" y="185.068" width="2.39" height="2.389"/>
<g>
	<path d="M137.604,25.659c1.414,1.604,2.808,2.803,4.182,3.598s2.743,1.191,4.109,1.191c1.271,0,2.315-0.341,3.133-1.024
		c0.818-0.683,1.228-1.548,1.228-2.597c0-1.159-0.354-2.053-1.061-2.68c-0.707-0.627-2.307-1.275-4.801-1.942
		c-3.415-0.921-5.829-2.121-7.243-3.598s-2.119-3.502-2.119-6.075c0-3.335,1.114-6.055,3.347-8.16
		c2.23-2.104,5.126-3.157,8.684-3.157c1.922,0,3.744,0.258,5.469,0.774c1.723,0.516,3.354,1.298,4.896,2.347l-2.978,6.838
		c-1.081-0.921-2.188-1.616-3.324-2.085c-1.137-0.468-2.259-0.703-3.371-0.703c-1.145,0-2.073,0.274-2.788,0.822
		s-1.072,1.251-1.072,2.109c0,0.874,0.313,1.572,0.941,2.096c0.627,0.524,1.838,1.024,3.633,1.501l0.429,0.119
		c3.875,1.048,6.424,2.2,7.648,3.455c0.826,0.858,1.453,1.886,1.882,3.085c0.429,1.199,0.644,2.529,0.644,3.991
		c0,3.701-1.215,6.675-3.646,8.922c-2.43,2.248-5.67,3.371-9.72,3.371c-2.431,0-4.643-0.413-6.636-1.239
		c-1.993-0.826-3.91-2.121-5.753-3.884L137.604,25.659z"/>
	<path d="M195.665,36.928V23.801c0-2.081-0.258-3.518-0.774-4.312c-0.516-0.794-1.41-1.191-2.68-1.191
		c-1.588,0-2.692,0.552-3.313,1.656s-0.929,3.363-0.929,6.778v10.197h-8.196V23.801c0-2.112-0.254-3.558-0.762-4.336
		c-0.509-0.778-1.397-1.167-2.668-1.167c-1.588,0-2.7,0.544-3.335,1.632c-0.635,1.088-0.953,3.355-0.953,6.802v10.197h-8.243V12.865
		h8.338v4.193c1.001-1.7,2.156-2.95,3.468-3.752c1.31-0.802,2.854-1.203,4.634-1.203c1.954,0,3.554,0.377,4.801,1.131
		c1.247,0.755,2.14,1.886,2.68,3.395c0.938-1.524,2.081-2.66,3.432-3.407c1.35-0.747,2.938-1.12,4.765-1.12
		c1.445,0,2.712,0.242,3.8,0.727c1.088,0.485,1.998,1.211,2.729,2.18c0.588,0.763,1.004,1.652,1.25,2.668
		c0.246,1.017,0.369,2.668,0.369,4.956v0.524v13.771H195.665z"/>
	<path d="M209.888,5.36c0-1.287,0.456-2.382,1.37-3.288c0.913-0.905,2.013-1.358,3.299-1.358c1.335,0,2.45,0.445,3.348,1.334
		c0.897,0.89,1.348,1.994,1.348,3.312c0,1.319-0.457,2.438-1.37,3.359c-0.914,0.921-2.021,1.382-3.324,1.382
		c-1.271,0-2.366-0.468-3.287-1.406C210.348,7.759,209.888,6.647,209.888,5.36z M210.316,36.928V12.865h8.505v24.063H210.316z"/>
	<path d="M225.541,36.928V0h8.505v36.928H225.541z"/>
	<path d="M265.471,26.588h-18.297c0.016,1.858,0.492,3.292,1.429,4.3c0.938,1.009,2.265,1.513,3.979,1.513
		c1.286,0,2.37-0.242,3.252-0.727c0.881-0.484,1.552-1.203,2.013-2.156l6.385,2.573c-0.762,1.843-2.111,3.264-4.05,4.265
		c-1.938,1.001-4.313,1.501-7.124,1.501c-4.191,0-7.556-1.164-10.089-3.49c-2.534-2.327-3.801-5.396-3.801-9.208
		c0-3.748,1.267-6.861,3.801-9.339c2.533-2.478,5.737-3.716,9.613-3.716c3.985,0,7.131,1.255,9.435,3.764
		c2.304,2.51,3.454,5.948,3.454,10.316V26.588L265.471,26.588z M257.108,21.799c-0.158-1.366-0.679-2.461-1.561-3.288
		c-0.882-0.826-1.966-1.239-3.252-1.239c-1.382,0-2.482,0.377-3.3,1.131c-0.818,0.755-1.362,1.886-1.633,3.395L257.108,21.799
		L257.108,21.799z"/>
	<path d="M286.437,36.928V2.049h9.603v34.879H286.437z"/>
	<path d="M303.71,36.928V2.049h7.267c5.416,0,9.247,0.254,11.495,0.762c2.247,0.509,4.221,1.358,5.921,2.549
		c2.207,1.541,3.883,3.514,5.026,5.92c1.143,2.406,1.716,5.15,1.716,8.231c0,3.082-0.572,5.825-1.716,8.231
		c-1.145,2.406-2.819,4.38-5.026,5.92c-1.685,1.176-3.605,2.013-5.766,2.514c-2.16,0.5-5.512,0.75-10.056,0.75h-1.596h-7.266V36.928
		z M313.12,29.114h1.597c3.732,0,6.456-0.766,8.172-2.299c1.716-1.532,2.573-3.967,2.573-7.302s-0.857-5.781-2.573-7.338
		c-1.716-1.556-4.438-2.335-8.172-2.335h-1.597V29.114z"/>
</g>
<path d="M96.083,155.035c-24.147-23.077-38.697-50.918-34.853-85.259c2.724-24.317,16.992-46.97,42.91-50.621l11.573-0.231
	l-11.265,1.848C79.865,26.82,67.646,45.866,65.586,70.199c-2.747,32.447,11.351,58.512,34.557,79.873
	c1.37,1.121,1.572,3.141,0.451,4.512C99.474,155.955,97.454,156.156,96.083,155.035"/>
<path d="M67.554,149.14c16.783,3.528,26.24,8.191,40.193,15.29c-3.149-17.6-5.869-29.849-4.193-49.04
	c-0.438,19.253,1.917,24.192,7.044,42.371c5.522,19.583,1.506,14.005-9.396,6.822C88.865,156.456,81.486,153.045,67.554,149.14"/>
<path d="M351.836,220.901v-1.672h-1.672v-1.672h-1.672v1.672h-1.673v-1.672h-5.017v1.672h-1.672v-3.345h-1.673v3.345h-5.018v-1.672
	h-3.345v-1.673h-3.344v-1.672h5.017v-3.344h-3.344v-3.345h1.672v-1.672h-1.672v-1.672h-1.672v-1.673h-1.672v-1.672h1.672v-1.672
	h1.672v-5.017h-1.672v1.672h-1.672v-1.672h-1.672v3.345h-1.673v-3.345h-1.672v-3.344h1.672v-1.673h-1.672v-1.672h-1.672v33.445
	h33.443V220.901z M323.408,199.164v-1.672h1.672v1.672H323.408z M323.408,199.164v1.672h-1.673v-1.672H323.408z M321.736,204.179
	v-1.672h1.673v1.672h1.672v1.672h-1.672v1.672h1.672v3.346h-1.672v3.344h1.672v1.672h-1.672v3.344h-3.346v-1.672h1.672v-1.672
	h-1.672v-6.689h1.672v-3.345h-1.672v-1.672L321.736,204.179L321.736,204.179z M326.753,214.212h-1.672v-1.672h1.672V214.212z
	 M326.753,217.557h1.672v1.672h-1.672V217.557z"/>
<path d="M336.786,189.128v1.672h6.688v1.673h1.672v1.672h-1.672v1.672h-5.017v-1.672h-1.672v3.345h1.672v1.672h-1.672v1.672h1.672
	v1.672h1.673v1.672h1.672v-1.672h3.345v-1.672h-5.017v-1.672h3.344v-1.672h5.018v1.672h1.672v-1.672h1.672v-1.672h-1.672v-1.672
	h1.672v-1.672h-3.345v-1.672h3.345v-1.672h-1.672v-1.672h-1.672v1.672h-1.673v-1.672h-1.672v1.672h-1.672v-1.672h-1.672v1.672
	h-1.672v-1.672h-1.673v1.672h-1.673V189.128z M345.147,194.146h1.672v1.672h-1.672V194.146z"/>
<polygon points="341.803,207.524 341.803,209.196 340.131,209.196 340.131,210.869 336.786,210.869 336.786,207.524 
	333.442,207.524 333.442,209.196 331.769,209.196 331.769,210.869 333.442,210.869 333.442,214.212 331.769,214.212 
	331.769,215.884 333.442,215.884 333.442,217.557 335.115,217.557 335.115,212.541 336.786,212.541 336.786,214.212 
	338.458,214.212 338.458,212.541 341.803,212.541 341.803,215.884 343.475,215.884 343.475,212.541 345.147,212.541 
	345.147,209.196 350.164,209.196 350.164,207.524 345.147,207.524 345.147,205.851 343.475,205.851 343.475,207.524 "/>
<polygon points="331.769,204.179 331.769,205.851 336.786,205.851 336.786,204.179 338.458,204.179 338.458,202.507 
	336.786,202.507 336.786,200.835 335.115,200.835 335.115,199.164 333.442,199.164 333.442,197.49 335.115,197.49 335.115,195.818 
	333.442,195.818 333.442,192.474 331.769,192.474 331.769,200.835 333.442,200.835 333.442,202.507 335.115,202.507 
	335.115,204.179 "/>
<polygon points="331.769,192.474 331.769,190.8 335.115,190.8 335.115,189.128 333.442,189.128 333.442,187.457 331.769,187.457 
	331.769,189.128 330.097,189.128 330.097,187.457 328.425,187.457 328.425,190.8 330.097,190.8 330.097,192.474 "/>
<rect x="325.08" y="187.457" width="1.672" height="3.346"/>
<rect x="335.115" y="190.8" width="1.672" height="3.345"/>
<rect x="345.147" y="212.541" width="3.345" height="1.672"/>
<rect x="345.147" y="199.164" width="3.345" height="1.672"/>
<rect x="341.803" y="192.474" width="1.672" height="1.672"/>
<rect x="341.803" y="204.179" width="1.672" height="1.672"/>
<rect x="338.458" y="207.524" width="1.673" height="1.672"/>
<rect x="326.753" y="190.8" width="1.672" height="1.673"/>
<rect x="338.458" y="204.179" width="1.673" height="1.672"/>
<rect x="336.786" y="205.851" width="1.672" height="1.672"/>
<rect x="340.131" y="205.851" width="1.672" height="1.672"/>
<rect x="350.164" y="205.851" width="1.672" height="1.672"/>
<rect x="335.115" y="187.457" width="1.672" height="1.672"/>
<rect x="321.736" y="204.179" width="1.673" height="1.672"/>
<rect x="350.164" y="209.196" width="1.672" height="1.673"/>
<rect x="350.164" y="202.507" width="1.672" height="1.672"/>
<rect x="350.164" y="212.541" width="1.672" height="1.672"/>
<rect x="330.097" y="202.507" width="1.672" height="1.672"/>
<rect x="321.736" y="214.212" width="1.673" height="1.672"/>
<rect x="346.819" y="215.884" width="1.673" height="1.673"/>
<rect x="350.164" y="215.884" width="1.672" height="1.673"/>
<rect x="350.164" y="199.164" width="1.672" height="1.672"/>
<rect x="321.736" y="187.457" width="1.673" height="1.672"/>
<rect x="328.425" y="199.164" width="1.672" height="1.672"/>
<rect x="323.408" y="190.8" width="1.672" height="1.673"/>
</svg>
