<?xml version="1.0" encoding="utf-8"?>
<!-- Generator: Adobe Illustrator 16.0.0, SVG Export Plug-In . SVG Version: 6.00 Build 0)  -->
<!DOCTYPE svg PUBLIC "-//W3C//DTD SVG 1.1//EN" "http://www.w3.org/Graphics/SVG/1.1/DTD/svg11.dtd">
<svg version="1.1" id="Layer_1" xmlns="http://www.w3.org/2000/svg" xmlns:xlink="http://www.w3.org/1999/xlink" x="0px" y="0px"
	 width="395.477px" height="331.692px" viewBox="0 0 395.477 331.692" enable-background="new 0 0 395.477 331.692"
	 xml:space="preserve">
<path d="M29.396,133.287h336.687c8.086,0,15.436,3.306,20.763,8.633s8.633,12.677,8.633,20.763V331.69h-4.252V162.682
	c0-6.912-2.83-13.198-7.388-17.756c-4.56-4.558-10.844-7.388-17.756-7.388H29.396c-6.912,0-13.196,2.829-17.756,7.388
	c-4.558,4.558-7.387,10.844-7.387,17.756V331.69H0V162.682c0-8.086,3.306-15.436,8.633-20.763
	C13.96,136.593,21.309,133.287,29.396,133.287"/>
<path d="M357.599,145.523H37.878c-2.039,0-3.896,0.835-5.239,2.18c-1.345,1.345-2.18,3.2-2.18,5.239v97.535
	c0,2.039,0.835,3.895,2.18,5.238c1.345,1.346,3.199,2.181,5.239,2.181h319.721c2.039,0,3.896-0.835,5.239-2.181
	c1.345-1.344,2.18-3.199,2.18-5.238v-97.535c0-2.039-0.835-3.894-2.18-5.239C361.493,146.358,359.638,145.523,357.599,145.523
	 M37.878,143.397h319.721c2.626,0,5.013,1.074,6.742,2.803c1.729,1.729,2.803,4.116,2.803,6.742v97.535
	c0,2.626-1.073,5.014-2.803,6.742c-1.73,1.728-4.116,2.803-6.742,2.803H37.878c-2.626,0-5.012-1.072-6.742-2.803
	c-1.729-1.729-2.803-4.116-2.803-6.742v-97.535c0-2.626,1.073-5.013,2.803-6.742C32.865,144.47,35.252,143.397,37.878,143.397z"/>
<g enable-background="new    ">
	<path d="M118.921,191.78l2.885-0.453c0.162,1.156,0.613,2.043,1.354,2.658s1.775,0.924,3.104,0.924c1.34,0,2.334-0.273,2.982-0.818
		s0.973-1.186,0.973-1.92c0-0.66-0.287-1.178-0.859-1.557c-0.4-0.26-1.394-0.59-2.982-0.988c-2.14-0.541-3.623-1.008-4.45-1.402
		c-0.827-0.395-1.453-0.941-1.88-1.639c-0.427-0.695-0.641-1.467-0.641-2.309c0-0.768,0.176-1.479,0.527-2.133
		c0.351-0.652,0.829-1.195,1.435-1.629c0.454-0.334,1.072-0.617,1.856-0.85s1.624-0.35,2.521-0.35c1.351,0,2.537,0.195,3.558,0.584
		c1.021,0.389,1.775,0.916,2.261,1.58s0.821,1.555,1.005,2.666l-2.853,0.391c-0.13-0.887-0.505-1.578-1.127-2.076
		c-0.621-0.496-1.499-0.744-2.634-0.744c-1.34,0-2.296,0.221-2.869,0.664s-0.859,0.961-0.859,1.557c0,0.377,0.119,0.719,0.356,1.02
		c0.237,0.314,0.61,0.574,1.119,0.779c0.292,0.107,1.151,0.355,2.577,0.746c2.064,0.551,3.504,1.002,4.32,1.354
		c0.816,0.35,1.456,0.861,1.921,1.531c0.464,0.67,0.697,1.502,0.697,2.496c0,0.973-0.284,1.889-0.851,2.748
		c-0.567,0.857-1.386,1.523-2.456,1.992c-1.07,0.471-2.28,0.705-3.631,0.705c-2.237,0-3.942-0.463-5.114-1.393
		S119.245,193.606,118.921,191.78z"/>
	<path d="M143.057,194.309l0.421,2.578c-0.821,0.172-1.556,0.258-2.205,0.258c-1.059,0-1.88-0.166-2.464-0.502
		c-0.583-0.334-0.994-0.775-1.232-1.32c-0.238-0.547-0.356-1.693-0.356-3.445v-9.904h-2.14v-2.27h2.14v-4.262l2.901-1.752v6.014
		h2.934v2.27h-2.934v10.066c0,0.832,0.051,1.367,0.154,1.605c0.103,0.238,0.27,0.426,0.502,0.566
		c0.232,0.141,0.564,0.211,0.997,0.211C142.101,194.422,142.528,194.385,143.057,194.309z"/>
	<path d="M157.192,196.918v-2.527c-1.34,1.943-3.161,2.916-5.463,2.916c-1.016,0-1.964-0.193-2.845-0.582
		c-0.881-0.391-1.535-0.879-1.961-1.467c-0.427-0.59-0.727-1.311-0.899-2.164c-0.119-0.574-0.178-1.48-0.178-2.725v-10.666h2.917
		v9.549c0,1.523,0.06,2.551,0.178,3.08c0.184,0.766,0.573,1.369,1.167,1.807c0.594,0.438,1.329,0.656,2.204,0.656
		c0.875,0,1.697-0.225,2.464-0.672c0.768-0.449,1.311-1.061,1.629-1.832c0.318-0.773,0.478-1.895,0.478-3.363v-9.225h2.917v17.215
		H157.192z"/>
	<path d="M169.155,196.918l-6.549-17.215h3.08l3.695,10.311c0.4,1.113,0.768,2.27,1.103,3.469c0.259-0.908,0.621-2,1.086-3.275
		l3.826-10.504h2.999l-6.516,17.215H169.155z"/>
	<path d="M184.148,196.918l-5.268-17.215h3.015l2.739,9.938l1.021,3.695c0.043-0.184,0.34-1.367,0.891-3.549l2.74-10.084h2.999
		l2.577,9.986l0.859,3.291l0.989-3.324l2.95-9.953h2.837l-5.381,17.215h-3.031l-2.739-10.309l-0.665-2.934l-3.485,13.242H184.148z"
		/>
	<path d="M203,196.918l6.289-8.947l-5.819-8.268h3.647l2.642,4.037c0.497,0.768,0.897,1.41,1.2,1.93
		c0.475-0.715,0.912-1.346,1.313-1.896l2.901-4.07h3.485l-5.949,8.105l6.402,9.109h-3.582l-3.533-5.35l-0.94-1.441l-4.522,6.791H203
		z"/>
	<path d="M221.414,203.549l-0.324-2.74c0.637,0.174,1.193,0.26,1.669,0.26c0.648,0,1.167-0.109,1.556-0.324
		c0.39-0.217,0.709-0.52,0.957-0.908c0.184-0.291,0.48-1.016,0.892-2.172c0.054-0.162,0.14-0.4,0.259-0.713l-6.531-17.248h3.145
		l3.582,9.969c0.465,1.266,0.881,2.594,1.248,3.988c0.334-1.34,0.734-2.646,1.199-3.922l3.68-10.035h2.918l-6.549,17.508
		c-0.703,1.891-1.248,3.193-1.637,3.906c-0.52,0.961-1.113,1.666-1.783,2.115c-0.67,0.447-1.471,0.672-2.399,0.672
		C222.733,203.905,222.106,203.786,221.414,203.549z"/>
	<path d="M236.602,196.918v-2.365l10.958-12.58c-1.243,0.066-2.34,0.098-3.29,0.098h-7.02v-2.367h14.07v1.93L242,192.559
		l-1.799,1.994c1.307-0.098,2.533-0.146,3.679-0.146h7.959v2.512H236.602z"/>
</g>
<g enable-background="new    ">
	<path d="M118.924,218.393l1.783-0.281c0.1,0.715,0.379,1.264,0.836,1.643c0.457,0.381,1.097,0.572,1.918,0.572
		c0.828,0,1.442-0.168,1.843-0.506c0.4-0.338,0.601-0.732,0.601-1.188c0-0.406-0.177-0.729-0.531-0.961
		c-0.247-0.16-0.861-0.365-1.843-0.611c-1.322-0.334-2.239-0.623-2.75-0.867c-0.511-0.242-0.898-0.58-1.162-1.012
		c-0.264-0.43-0.396-0.906-0.396-1.426c0-0.475,0.108-0.914,0.326-1.318c0.217-0.404,0.512-0.74,0.886-1.006
		c0.28-0.207,0.663-0.383,1.147-0.527c0.484-0.143,1.003-0.215,1.558-0.215c0.834,0,1.567,0.121,2.199,0.361
		c0.631,0.24,1.097,0.566,1.397,0.977c0.301,0.41,0.507,0.959,0.621,1.646l-1.763,0.242c-0.08-0.549-0.313-0.977-0.696-1.283
		c-0.384-0.307-0.927-0.461-1.628-0.461c-0.828,0-1.419,0.137-1.773,0.41c-0.354,0.275-0.531,0.596-0.531,0.963
		c0,0.234,0.074,0.443,0.221,0.631c0.146,0.193,0.377,0.354,0.691,0.48c0.18,0.066,0.711,0.221,1.593,0.461
		c1.275,0.34,2.165,0.619,2.669,0.836c0.504,0.217,0.899,0.533,1.187,0.947c0.287,0.414,0.431,0.928,0.431,1.543
		c0,0.6-0.175,1.166-0.526,1.697s-0.856,0.941-1.518,1.232c-0.661,0.289-1.409,0.436-2.244,0.436c-1.382,0-2.436-0.287-3.16-0.861
		C119.587,220.374,119.124,219.522,118.924,218.393z"/>
	<path d="M129.18,218.393l1.783-0.281c0.1,0.715,0.379,1.264,0.836,1.643c0.457,0.381,1.097,0.572,1.918,0.572
		c0.828,0,1.442-0.168,1.843-0.506c0.4-0.338,0.601-0.732,0.601-1.188c0-0.406-0.177-0.729-0.531-0.961
		c-0.247-0.16-0.861-0.365-1.843-0.611c-1.322-0.334-2.239-0.623-2.75-0.867c-0.511-0.242-0.898-0.58-1.162-1.012
		c-0.264-0.43-0.396-0.906-0.396-1.426c0-0.475,0.108-0.914,0.326-1.318c0.217-0.404,0.512-0.74,0.886-1.006
		c0.28-0.207,0.663-0.383,1.147-0.527c0.484-0.143,1.003-0.215,1.558-0.215c0.834,0,1.567,0.121,2.199,0.361
		c0.631,0.24,1.097,0.566,1.397,0.977c0.301,0.41,0.507,0.959,0.621,1.646l-1.763,0.242c-0.08-0.549-0.313-0.977-0.696-1.283
		c-0.384-0.307-0.927-0.461-1.628-0.461c-0.828,0-1.419,0.137-1.773,0.41c-0.354,0.275-0.531,0.596-0.531,0.963
		c0,0.234,0.074,0.443,0.221,0.631c0.146,0.193,0.377,0.354,0.691,0.48c0.18,0.066,0.711,0.221,1.593,0.461
		c1.275,0.34,2.165,0.619,2.669,0.836c0.504,0.217,0.899,0.533,1.187,0.947c0.287,0.414,0.431,0.928,0.431,1.543
		c0,0.6-0.175,1.166-0.526,1.697s-0.856,0.941-1.518,1.232c-0.661,0.289-1.409,0.436-2.244,0.436c-1.382,0-2.436-0.287-3.16-0.861
		C129.844,220.374,129.381,219.522,129.18,218.393z"/>
	<path d="M140.169,208.958v-2.074h1.803v2.074H140.169z M140.169,221.569V210.93h1.803v10.639H140.169z"/>
	<path d="M151.618,221.569v-1.342c-0.675,1.055-1.667,1.582-2.975,1.582c-0.848,0-1.628-0.234-2.339-0.701
		c-0.711-0.467-1.262-1.121-1.653-1.959s-0.586-1.801-0.586-2.889c0-1.063,0.177-2.025,0.531-2.891s0.885-1.527,1.593-1.988
		c0.708-0.461,1.499-0.691,2.374-0.691c0.641,0,1.212,0.135,1.713,0.406c0.5,0.27,0.908,0.623,1.222,1.057v-5.27h1.793v14.686
		H151.618z M145.919,216.26c0,1.361,0.287,2.381,0.861,3.055s1.252,1.012,2.034,1.012c0.788,0,1.457-0.322,2.008-0.967
		c0.551-0.645,0.826-1.627,0.826-2.949c0-1.457-0.28-2.525-0.841-3.207c-0.561-0.68-1.252-1.021-2.073-1.021
		c-0.802,0-1.471,0.328-2.009,0.982S145.919,214.85,145.919,216.26z"/>
	<path d="M156.626,212.985v-2.055h2.053v2.055H156.626z M156.626,221.569v-2.055h2.053v2.055H156.626z"/>
	<path d="M166.803,218.393l1.783-0.281c0.1,0.715,0.379,1.264,0.836,1.643c0.457,0.381,1.097,0.572,1.918,0.572
		c0.828,0,1.442-0.168,1.843-0.506c0.4-0.338,0.601-0.732,0.601-1.188c0-0.406-0.177-0.729-0.531-0.961
		c-0.247-0.16-0.861-0.365-1.843-0.611c-1.322-0.334-2.239-0.623-2.75-0.867c-0.511-0.242-0.898-0.58-1.162-1.012
		c-0.264-0.43-0.396-0.906-0.396-1.426c0-0.475,0.108-0.914,0.326-1.318c0.217-0.404,0.512-0.74,0.886-1.006
		c0.28-0.207,0.663-0.383,1.147-0.527c0.484-0.143,1.003-0.215,1.558-0.215c0.834,0,1.567,0.121,2.199,0.361
		c0.631,0.24,1.097,0.566,1.397,0.977c0.301,0.41,0.507,0.959,0.621,1.646l-1.763,0.242c-0.08-0.549-0.313-0.977-0.696-1.283
		c-0.384-0.307-0.927-0.461-1.628-0.461c-0.828,0-1.419,0.137-1.773,0.41c-0.354,0.275-0.531,0.596-0.531,0.963
		c0,0.234,0.074,0.443,0.221,0.631c0.146,0.193,0.377,0.354,0.691,0.48c0.18,0.066,0.711,0.221,1.593,0.461
		c1.275,0.34,2.165,0.619,2.669,0.836c0.504,0.217,0.899,0.533,1.187,0.947c0.287,0.414,0.431,0.928,0.431,1.543
		c0,0.6-0.175,1.166-0.526,1.697s-0.856,0.941-1.518,1.232c-0.661,0.289-1.409,0.436-2.244,0.436c-1.382,0-2.436-0.287-3.16-0.861
		C167.466,220.374,167.004,219.522,166.803,218.393z"/>
	<path d="M177.781,221.569V210.93h1.613v1.492c0.334-0.52,0.778-0.939,1.333-1.256c0.554-0.318,1.185-0.477,1.893-0.477
		c0.788,0,1.434,0.164,1.938,0.49c0.504,0.328,0.86,0.785,1.067,1.373c0.841-1.242,1.937-1.863,3.285-1.863
		c1.055,0,1.867,0.293,2.434,0.877c0.568,0.584,0.852,1.484,0.852,2.699v7.303h-1.793v-6.701c0-0.721-0.059-1.24-0.175-1.559
		c-0.117-0.316-0.329-0.572-0.636-0.766s-0.667-0.291-1.082-0.291c-0.748,0-1.369,0.25-1.863,0.746
		c-0.494,0.498-0.741,1.295-0.741,2.389v6.182h-1.803v-6.912c0-0.801-0.147-1.402-0.441-1.803s-0.775-0.602-1.442-0.602
		c-0.507,0-0.977,0.135-1.407,0.4c-0.431,0.268-0.743,0.658-0.937,1.172c-0.194,0.516-0.291,1.256-0.291,2.225v5.52H177.781z"/>
	<path d="M194.88,208.958v-2.074h1.803v2.074H194.88z M194.88,221.569V210.93h1.803v10.639H194.88z"/>
	<path d="M199.387,221.569v-14.686h1.803v14.686H199.387z"/>
	<path d="M211.267,218.143l1.863,0.23c-0.294,1.088-0.839,1.934-1.633,2.533c-0.795,0.602-1.81,0.902-3.045,0.902
		c-1.556,0-2.79-0.479-3.701-1.438s-1.367-2.303-1.367-4.031c0-1.791,0.46-3.18,1.382-4.168s2.117-1.482,3.586-1.482
		c1.422,0,2.584,0.484,3.486,1.453c0.901,0.969,1.352,2.33,1.352,4.086c0,0.107-0.003,0.268-0.01,0.48h-7.934
		c0.067,1.17,0.398,2.064,0.992,2.686s1.336,0.932,2.224,0.932c0.661,0,1.226-0.174,1.692-0.521
		C210.622,219.458,210.992,218.905,211.267,218.143z M205.347,215.227h5.94c-0.08-0.895-0.308-1.564-0.682-2.012
		c-0.574-0.695-1.318-1.043-2.233-1.043c-0.828,0-1.524,0.277-2.089,0.832S205.406,214.299,205.347,215.227z"/>
	<path d="M213.731,225.645v-1.303h11.949v1.303H213.731z"/>
	<path d="M233.744,220.256c-0.668,0.568-1.311,0.969-1.928,1.201c-0.618,0.234-1.281,0.352-1.988,0.352
		c-1.17,0-2.067-0.285-2.695-0.857c-0.627-0.57-0.941-1.299-0.941-2.188c0-0.521,0.119-0.998,0.355-1.428
		c0.237-0.432,0.548-0.775,0.932-1.037c0.384-0.26,0.816-0.457,1.297-0.59c0.354-0.094,0.889-0.184,1.604-0.271
		c1.455-0.174,2.527-0.381,3.215-0.621c0.006-0.246,0.01-0.404,0.01-0.471c0-0.734-0.17-1.252-0.511-1.553
		c-0.46-0.406-1.146-0.611-2.054-0.611c-0.848,0-1.474,0.148-1.878,0.447c-0.403,0.297-0.702,0.822-0.896,1.576l-1.763-0.24
		c0.16-0.754,0.424-1.363,0.791-1.828c0.367-0.463,0.898-0.82,1.593-1.07c0.694-0.252,1.499-0.377,2.414-0.377
		c0.908,0,1.646,0.107,2.214,0.32c0.567,0.215,0.984,0.482,1.252,0.807s0.454,0.732,0.561,1.227c0.061,0.309,0.09,0.861,0.09,1.664
		v2.404c0,1.676,0.039,2.736,0.115,3.18c0.077,0.443,0.229,0.869,0.457,1.277h-1.884
		C233.918,221.194,233.797,220.756,233.744,220.256z M233.594,216.229c-0.654,0.268-1.637,0.494-2.945,0.682
		c-0.74,0.107-1.266,0.227-1.572,0.361c-0.307,0.133-0.545,0.328-0.711,0.586c-0.167,0.256-0.25,0.541-0.25,0.855
		c0,0.48,0.182,0.881,0.545,1.203c0.364,0.32,0.896,0.48,1.598,0.48c0.695,0,1.313-0.152,1.854-0.457
		c0.541-0.303,0.938-0.719,1.191-1.246c0.193-0.408,0.291-1.008,0.291-1.803V216.229z"/>
	<path d="M239.874,221.569h-1.673v-14.686h1.803v5.24c0.762-0.955,1.732-1.434,2.915-1.434c0.654,0,1.273,0.133,1.858,0.396
		c0.584,0.264,1.064,0.635,1.441,1.111c0.378,0.479,0.674,1.053,0.887,1.729c0.214,0.674,0.32,1.395,0.32,2.162
		c0,1.824-0.45,3.232-1.352,4.229c-0.901,0.994-1.983,1.492-3.246,1.492c-1.255,0-2.24-0.525-2.954-1.572V221.569z M239.854,216.168
		c0,1.277,0.174,2.197,0.521,2.766c0.567,0.928,1.336,1.393,2.304,1.393c0.788,0,1.469-0.342,2.043-1.027
		c0.575-0.684,0.862-1.705,0.862-3.061c0-1.389-0.275-2.414-0.827-3.074c-0.551-0.662-1.217-0.992-1.998-0.992
		c-0.788,0-1.47,0.342-2.044,1.027C240.141,213.883,239.854,214.874,239.854,216.168z"/>
	<path d="M256.563,217.672l1.772,0.23c-0.194,1.221-0.69,2.178-1.487,2.869c-0.799,0.691-1.778,1.037-2.94,1.037
		c-1.456,0-2.626-0.477-3.511-1.428s-1.327-2.314-1.327-4.092c0-1.148,0.19-2.154,0.571-3.016s0.959-1.506,1.738-1.938
		c0.777-0.432,1.623-0.646,2.539-0.646c1.154,0,2.1,0.293,2.834,0.877s1.205,1.414,1.412,2.488l-1.752,0.271
		c-0.168-0.715-0.463-1.252-0.887-1.613c-0.424-0.359-0.938-0.541-1.538-0.541c-0.908,0-1.646,0.326-2.214,0.977
		c-0.567,0.652-0.852,1.682-0.852,3.09c0,1.43,0.274,2.469,0.822,3.115c0.547,0.648,1.262,0.973,2.143,0.973
		c0.709,0,1.299-0.217,1.773-0.652C256.135,219.241,256.436,218.573,256.563,217.672z"/>
	<path d="M266.78,221.569v-1.342c-0.676,1.055-1.667,1.582-2.976,1.582c-0.849,0-1.628-0.234-2.339-0.701s-1.262-1.121-1.652-1.959
		s-0.586-1.801-0.586-2.889c0-1.063,0.176-2.025,0.53-2.891s0.885-1.527,1.593-1.988c0.707-0.461,1.499-0.691,2.374-0.691
		c0.642,0,1.212,0.135,1.713,0.406c0.501,0.27,0.907,0.623,1.222,1.057v-5.27h1.793v14.686H266.78z M261.079,216.26
		c0,1.361,0.287,2.381,0.861,3.055s1.253,1.012,2.034,1.012c0.787,0,1.457-0.322,2.008-0.967s0.826-1.627,0.826-2.949
		c0-1.457-0.28-2.525-0.842-3.207c-0.561-0.68-1.252-1.021-2.072-1.021c-0.803,0-1.472,0.328-2.01,0.982
		C261.348,213.819,261.079,214.85,261.079,216.26z"/>
	<path d="M278.569,218.143l1.863,0.23c-0.295,1.088-0.839,1.934-1.633,2.533c-0.795,0.602-1.811,0.902-3.045,0.902
		c-1.557,0-2.791-0.479-3.701-1.438c-0.912-0.959-1.367-2.303-1.367-4.031c0-1.791,0.46-3.18,1.381-4.168
		c0.922-0.988,2.117-1.482,3.586-1.482c1.423,0,2.585,0.484,3.486,1.453c0.902,0.969,1.353,2.33,1.353,4.086
		c0,0.107-0.003,0.268-0.011,0.48h-7.933c0.067,1.17,0.397,2.064,0.991,2.686c0.595,0.621,1.336,0.932,2.225,0.932
		c0.66,0,1.225-0.174,1.692-0.521S278.294,218.905,278.569,218.143z M272.649,215.227h5.939c-0.08-0.895-0.307-1.564-0.682-2.012
		c-0.574-0.695-1.318-1.043-2.232-1.043c-0.828,0-1.525,0.277-2.09,0.832C273.021,213.559,272.708,214.299,272.649,215.227z"/>
	<path d="M283.125,221.569v-9.236h-1.592v-1.402h1.592v-1.131c0-0.715,0.064-1.246,0.191-1.594c0.174-0.467,0.479-0.846,0.916-1.137
		c0.438-0.289,1.051-0.436,1.838-0.436c0.508,0,1.068,0.061,1.684,0.18l-0.271,1.574c-0.373-0.066-0.728-0.102-1.061-0.102
		c-0.549,0-0.936,0.117-1.162,0.352c-0.228,0.234-0.342,0.67-0.342,1.313v0.98h2.074v1.402h-2.074v9.236H283.125z"/>
</g>
<path d="M97.234,228.068v-2.746h-2.746v-2.745h-2.744v2.745h-2.746v-2.745H80.76v2.745h-2.746v-5.491h-2.746v5.491h-8.235v-2.745
	H61.54v-2.746h-5.491v-2.746h8.237v-5.492h-5.491v-5.489h2.746v-2.746h-2.746v-2.746h-2.746v-2.746h-2.746v-2.745h2.746v-2.746
	h2.746v-8.236h-2.746v2.746h-2.746v-2.746h-2.746v5.49h-2.746v-5.49h-2.746v-5.491h2.746V175.9h-2.746v-2.746h-2.746v54.912h54.915
	V228.068z M50.558,192.375v-2.746h2.746v2.746H50.558z M50.558,192.375v2.746h-2.746v-2.746H50.558z M47.813,200.612v-2.746h2.746
	v2.746h2.746v2.746h-2.746v2.746h2.746v5.491h-2.746v5.491h2.746v2.746h-2.746v5.489h-5.491v-2.745h2.746v-2.746h-2.746v-10.981
	h2.746v-5.491h-2.746v-2.746H47.813z M56.049,217.086h-2.746v-2.746h2.746V217.086z M56.049,222.577h2.746v2.746h-2.746V222.577z"/>
<path d="M72.523,175.901v2.746h10.982v2.745h2.746v2.746h-2.746v2.745h-8.237v-2.745h-2.746v5.491h2.746v2.746h-2.746v2.746h2.746
	v2.746h2.746v2.744h2.746v-2.744h5.491v-2.746h-8.237v-2.746h5.491v-2.746h8.237v2.746h2.744v-2.746h2.746v-2.746h-2.746v-2.746
	h2.746v-2.746h-5.489v-2.745h5.489V175.9h-2.746v-2.746h-2.744v2.746h-2.746v-2.746H86.25v2.746h-2.746v-2.746H80.76v2.746h-2.746
	v-2.746h-2.746v2.746L72.523,175.901L72.523,175.901z M86.252,184.138h2.746v2.745h-2.746V184.138z"/>
<polygon points="80.76,206.103 80.76,208.849 78.015,208.849 78.015,211.594 72.523,211.594 72.523,206.103 67.032,206.103 
	67.032,208.849 64.286,208.849 64.286,211.594 67.032,211.594 67.032,217.086 64.286,217.086 64.286,219.831 67.032,219.831 
	67.032,222.577 69.778,222.577 69.778,214.34 72.523,214.34 72.523,217.086 75.269,217.086 75.269,214.34 80.76,214.34 
	80.76,219.831 83.506,219.831 83.506,214.34 86.252,214.34 86.252,208.849 94.488,208.849 94.488,206.103 86.252,206.103 
	86.252,203.358 83.506,203.358 83.506,206.103 "/>
<polygon points="64.286,200.612 64.286,203.358 72.523,203.358 72.523,200.612 75.269,200.612 75.269,197.866 72.523,197.866 
	72.523,195.122 69.778,195.122 69.778,192.375 67.032,192.375 67.032,189.629 69.778,189.629 69.778,186.883 67.032,186.883 
	67.032,181.392 64.286,181.392 64.286,195.122 67.032,195.122 67.032,197.866 69.778,197.866 69.778,200.612 "/>
<polygon points="64.286,181.392 64.286,178.647 69.778,178.647 69.778,175.901 67.032,175.901 67.032,173.157 64.286,173.157 
	64.286,175.901 61.541,175.901 61.541,173.157 58.795,173.157 58.795,178.647 61.541,178.647 61.541,181.392 "/>
<rect x="53.304" y="173.157" width="2.746" height="5.49"/>
<rect x="69.778" y="178.647" width="2.746" height="5.491"/>
<rect x="86.252" y="214.34" width="5.491" height="2.746"/>
<rect x="86.252" y="192.375" width="5.491" height="2.746"/>
<rect x="80.76" y="181.392" width="2.746" height="2.746"/>
<rect x="80.76" y="200.612" width="2.746" height="2.746"/>
<rect x="75.269" y="206.103" width="2.746" height="2.746"/>
<rect x="56.049" y="178.647" width="2.746" height="2.745"/>
<rect x="75.269" y="200.612" width="2.746" height="2.746"/>
<rect x="72.523" y="203.358" width="2.746" height="2.746"/>
<rect x="78.015" y="203.358" width="2.746" height="2.746"/>
<rect x="94.488" y="203.358" width="2.746" height="2.746"/>
<rect x="69.778" y="173.157" width="2.746" height="2.745"/>
<rect x="47.813" y="200.612" width="2.746" height="2.746"/>
<rect x="94.488" y="208.849" width="2.746" height="2.746"/>
<rect x="94.488" y="197.866" width="2.746" height="2.746"/>
<rect x="94.488" y="214.34" width="2.746" height="2.746"/>
<rect x="61.541" y="197.866" width="2.746" height="2.746"/>
<rect x="47.813" y="217.086" width="2.746" height="2.746"/>
<rect x="88.997" y="219.831" width="2.746" height="2.746"/>
<rect x="94.488" y="219.831" width="2.746" height="2.746"/>
<rect x="94.488" y="192.375" width="2.746" height="2.746"/>
<rect x="47.813" y="173.157" width="2.746" height="2.745"/>
<rect x="58.795" y="192.375" width="2.746" height="2.746"/>
<rect x="50.558" y="178.647" width="2.746" height="2.745"/>
<g>
	<path d="M137.604,25.659c1.414,1.604,2.809,2.803,4.183,3.598s2.742,1.191,4.108,1.191c1.271,0,2.315-0.341,3.133-1.024
		c0.818-0.683,1.229-1.548,1.229-2.597c0-1.159-0.354-2.053-1.062-2.68s-2.307-1.275-4.801-1.942
		c-3.415-0.921-5.829-2.121-7.243-3.598s-2.118-3.502-2.118-6.075c0-3.335,1.113-6.055,3.347-8.16
		c2.229-2.104,5.126-3.157,8.684-3.157c1.922,0,3.744,0.258,5.47,0.774c1.723,0.516,3.354,1.298,4.896,2.347l-2.978,6.838
		c-1.081-0.921-2.188-1.616-3.324-2.085c-1.138-0.468-2.259-0.703-3.371-0.703c-1.146,0-2.073,0.274-2.788,0.822
		s-1.072,1.251-1.072,2.109c0,0.874,0.313,1.572,0.941,2.096c0.627,0.524,1.838,1.024,3.633,1.501l0.429,0.119
		c3.875,1.048,6.424,2.2,7.648,3.455c0.826,0.858,1.453,1.886,1.882,3.085c0.429,1.199,0.644,2.529,0.644,3.991
		c0,3.701-1.215,6.675-3.646,8.922c-2.43,2.248-5.67,3.371-9.72,3.371c-2.432,0-4.644-0.413-6.637-1.239
		c-1.992-0.826-3.909-2.121-5.753-3.884L137.604,25.659z"/>
	<path d="M165.121,36.928V18.869h-3.599v-6.004h3.599V5.694h8.361v7.171h3.6v6.004h-3.6v18.059H165.121z"/>
	<path d="M181.083,36.928V12.865h8.005v5.67c0.826-2.064,1.954-3.613,3.383-4.646c1.429-1.032,3.16-1.548,5.193-1.548
		c0.333,0,0.67,0.012,1.012,0.036s0.688,0.06,1.037,0.107l-0.813,7.719c-0.508-0.174-1.008-0.301-1.5-0.381
		c-0.491-0.08-0.969-0.119-1.43-0.119c-2.063,0-3.657,0.631-4.777,1.894c-1.118,1.263-1.68,3.054-1.68,5.373v9.958H181.083z"/>
	<path d="M227.78,26.588h-18.297c0.018,1.858,0.492,3.292,1.431,4.3c0.938,1.009,2.264,1.513,3.979,1.513
		c1.286,0,2.37-0.242,3.252-0.727c0.881-0.484,1.552-1.203,2.015-2.156l6.385,2.573c-0.764,1.843-2.112,3.264-4.05,4.265
		c-1.938,1.001-4.313,1.501-7.124,1.501c-4.192,0-7.558-1.164-10.091-3.49c-2.532-2.327-3.801-5.396-3.801-9.208
		c0-3.748,1.269-6.861,3.801-9.339c2.533-2.478,5.737-3.716,9.613-3.716c3.986,0,7.131,1.255,9.437,3.764
		c2.303,2.51,3.453,5.948,3.453,10.316v0.404H227.78z M219.418,21.799c-0.159-1.366-0.681-2.461-1.563-3.288
		c-0.882-0.826-1.966-1.239-3.252-1.239c-1.382,0-2.48,0.377-3.3,1.131c-0.818,0.755-1.362,1.886-1.632,3.395L219.418,21.799
		L219.418,21.799z"/>
	<path d="M233.951,36.928V18.869h-3.6v-6.004h3.6V5.694h8.36v7.171h3.6v6.004h-3.6v18.059H233.951z"/>
	<path d="M267.138,20.775c-0.825-0.73-1.62-1.263-2.382-1.596c-0.763-0.333-1.564-0.5-2.406-0.5c-1.684,0-3.021,0.556-4.015,1.667
		c-0.993,1.112-1.489,2.621-1.489,4.527c0,1.843,0.516,3.312,1.549,4.407c1.032,1.096,2.422,1.644,4.169,1.644
		c0.858,0,1.664-0.17,2.419-0.512c0.754-0.341,1.475-0.87,2.155-1.584v7.362c-1.017,0.572-2.033,0.993-3.049,1.263
		c-1.019,0.27-2.065,0.405-3.146,0.405c-3.699,0-6.696-1.187-8.991-3.562c-2.298-2.374-3.443-5.499-3.443-9.375
		c0-3.764,1.172-6.841,3.515-9.232c2.345-2.39,5.351-3.585,9.02-3.585c1.223,0,2.326,0.119,3.312,0.357
		c0.984,0.238,1.914,0.619,2.787,1.144L267.138,20.775L267.138,20.775z"/>
	<path d="M272.356,36.928V0h8.339v12.96c0,0.858-0.022,1.652-0.069,2.383c-0.048,0.73-0.119,1.39-0.215,1.977
		c1.063-1.794,2.316-3.113,3.765-3.955c1.444-0.842,3.168-1.263,5.17-1.263c1.556,0,2.942,0.25,4.157,0.75s2.204,1.219,2.966,2.156
		c0.636,0.81,1.088,1.795,1.358,2.955c0.27,1.16,0.403,2.891,0.403,5.194v13.771h-8.506V24.039c0-1.921-0.313-3.319-0.939-4.193
		c-0.628-0.873-1.634-1.31-3.016-1.31c-1.763,0-3.05,0.651-3.857,1.954c-0.813,1.302-1.217,3.415-1.217,6.337v10.102L272.356,36.928
		L272.356,36.928z"/>
	<path d="M320.315,36.928V2.049h9.604v34.879H320.315z"/>
	<path d="M337.588,36.928V2.049h7.267c5.416,0,9.247,0.254,11.495,0.762c2.247,0.509,4.221,1.358,5.921,2.549
		c2.207,1.541,3.883,3.514,5.026,5.92c1.143,2.406,1.716,5.15,1.716,8.231c0,3.082-0.572,5.825-1.716,8.231
		c-1.146,2.406-2.819,4.38-5.026,5.92c-1.685,1.176-3.604,2.013-5.766,2.514c-2.16,0.5-5.512,0.75-10.055,0.75h-1.598h-7.266
		L337.588,36.928L337.588,36.928z M346.998,29.114h1.597c3.732,0,6.456-0.766,8.172-2.299c1.716-1.532,2.573-3.967,2.573-7.302
		s-0.857-5.781-2.573-7.338c-1.716-1.556-4.438-2.335-8.172-2.335h-1.597V29.114z"/>
</g>
<path d="M96.083,155.035c-24.147-23.077-38.697-50.918-34.854-85.259c2.725-24.317,16.992-46.97,42.91-50.621l11.573-0.231
	l-11.265,1.848C79.865,26.82,67.646,45.866,65.586,70.199c-2.747,32.447,11.351,58.512,34.557,79.873
	c1.37,1.121,1.572,3.141,0.451,4.512C99.474,155.955,97.454,156.156,96.083,155.035"/>
<path d="M67.554,149.14c16.783,3.528,26.24,8.191,40.193,15.29c-3.149-17.6-5.869-29.849-4.193-49.04
	c-0.438,19.253,1.917,24.192,7.044,42.371c5.522,19.582,1.506,14.005-9.396,6.822C88.865,156.456,81.486,153.045,67.554,149.14"/>
</svg>
